# xmcd
#
# Track frame offsets: 
#        150
#        26194
#        43314
#        64000
#        84615
#        108584
#        124932
#        139946
#        159200
#        179866
#        196424
#
# Disc length: 3037 seconds
#
# Revision: 0
# Processed by: cddbd v1.5.2PL0 Copyright (c) Steve Scherf et al.
# Submitted via: ExactAudioCopyFreeDBPlugin 1.0
#
DISCID=a50bdb0b
DTITLE=Van Morrisson - Keep It Simple
DYEAR=2008
DGENRE=R&B
TTITLE0=How Can A Poor Boy?
TTITLE1=School Of Hard Knocks
TTITLE2=That's Entrainment
TTITLE3=Don't Go to Nightclubs Anymore
TTITLE4=Lover Come Back
TTITLE5=Keep It Simple
TTITLE6=End Of The Land
TTITLE7=Song Of Home
TTITLE8=No Thing
TTITLE9=Soul
TTITLE10=Behind The Ritual
EXTD=
EXTT0=
EXTT1=
EXTT2=
EXTT3=
EXTT4=
EXTT5=
EXTT6=
EXTT7=
EXTT8=
EXTT9=
EXTT10=
PLAYORDER=
